<svg width="32" height="32" xmlns="http://www.w3.org/2000/svg">

 <g>
  <title>background</title>
  <rect fill="none" id="canvas_background" height="402" width="582" y="-1" x="-1"/>
 </g>
 <g>
  <title>Layer 1</title>
  <path transform="rotate(70.92935180664062 13.796730995178224,6.736310005187988) " stroke="null" id="svg_2" fill="#333333" d="m17.143928,2.98631c-3.982648,0 -7.209346,3.134 -7.209346,7c0,0.276 0.230699,0.5 0.514953,0.5s0.514953,-0.224 0.514953,-0.5c0,-3.313 2.766329,-6 6.179439,-6c0.283224,0 0.514953,-0.224 0.514953,-0.5s-0.231729,-0.5 -0.514953,-0.5z"/>
  <path stroke="null" transform="rotate(-89.42105865478516 15.43925380706787,15.887850761413572) " id="svg_1" fill="#333333" d="m19.412445,0.37444c-6.582585,0 -11.919575,5.209434 -11.919575,11.634694c0,1.964324 0.503602,3.813271 1.385651,5.43728l-8.288078,8.088051l0.006953,0.005817c-0.64763,0.621487 -1.050909,1.482454 -1.050909,2.439407c0,1.889668 1.569411,3.42157 3.505348,3.42157c0.978398,0 1.86144,-0.39364 2.498144,-1.026762l-0.001987,-0.001939l8.285098,-8.086112c1.664767,0.863876 3.561966,1.357381 5.579354,1.357381c6.582585,0 11.919575,-5.209434 11.919575,-11.634694c0,-6.42526 -5.33699,-11.634694 -11.919575,-11.634694zm-15.103094,28.788111c-0.319842,0.323832 -0.762853,0.52647 -1.257515,0.52647c-0.968465,0 -1.753171,-0.764981 -1.753171,-1.7103c0,-0.48284 0.208593,-0.914293 0.539361,-1.22746l-0.00894,-0.007756l8.011941,-7.820453c0.700275,0.922049 1.534645,1.736478 2.477285,2.421955l-8.008961,7.817545zm15.103094,-7.456869c-5.484991,0 -9.932979,-4.34265 -9.932979,-9.695578c0,-5.353898 4.447988,-9.695578 9.932979,-9.695578c5.483998,0 9.932979,4.34168 9.932979,9.695578c0,5.352929 -4.448981,9.695578 -9.932979,9.695578z"/>
 </g>
</svg>